<svg width="72" height="70" viewBox="0 0 72 70" fill="none" xmlns="http://www.w3.org/2000/svg">
<g clip-path="url(#clip0_405_11913)">
<path d="M68.8688 41.4659L68.8687 41.479L68.8687 41.492C68.8686 41.6507 68.8191 41.812 68.7175 41.9545C68.6151 42.0981 68.462 42.2186 68.2706 42.2883L68.2631 42.2911L53.8237 47.6039L53.8198 47.6054C53.2091 47.8312 52.6488 48.1805 52.1766 48.6348L53.8832 50.4089L52.1765 48.6348C51.7042 49.0892 51.3303 49.6389 51.0832 50.2508L51.0817 50.2545L45.4584 64.2419L45.4576 64.2438C45.3946 64.401 45.2791 64.5478 45.1148 64.6564C44.9496 64.7655 44.7468 64.8277 44.5335 64.8266C44.3201 64.8254 44.118 64.7611 43.9541 64.6503C43.791 64.54 43.6772 64.392 43.6159 64.2341L43.6153 64.2326L38.152 50.1909L38.1504 50.1868C37.9101 49.5724 37.5424 49.0188 37.0751 48.5594L35.3238 50.3409L37.0751 48.5594C36.608 48.1002 36.0515 47.745 35.4434 47.5128L35.4398 47.5114L21.0563 42.043L21.0544 42.0423C20.8611 41.9689 20.7069 41.8448 20.604 41.6976L18.5545 43.1297L20.604 41.6976C20.5019 41.5513 20.4526 41.3864 20.4535 41.2243C20.4544 41.0623 20.5055 40.8979 20.6093 40.7527C20.7138 40.6066 20.8694 40.4841 21.0635 40.4128L21.065 40.4122L35.5043 35.0994L35.5083 35.098C36.1189 34.8721 36.6793 34.5228 37.1515 34.0686C37.6239 33.6141 37.9977 33.0644 38.2449 32.4526L38.2463 32.4489L43.8358 18.5466L43.8417 18.532L43.8474 18.5173C43.9144 18.3444 44.0393 18.1836 44.2176 18.0653C44.3944 17.9481 44.6111 17.8815 44.8386 17.8826C45.0413 17.8884 45.2319 17.9526 45.3864 18.0591C45.5424 18.1667 45.6508 18.3096 45.7092 18.4614L45.7128 18.4708L51.1761 32.5125L51.1777 32.5165C51.418 33.131 51.7857 33.6846 52.253 34.144C52.7201 34.6032 53.2766 34.9583 53.8847 35.1906L53.8882 35.1919L68.2718 40.6604L68.2797 40.6634C68.4703 40.7351 68.622 40.8572 68.7228 41.0019C68.8229 41.1455 68.8705 41.3073 68.8688 41.4659Z" stroke="#891B3A" stroke-width="5"/>
<path d="M24.5455 57.477C24.5433 57.8779 24.4162 58.2688 24.181 58.5981C23.9457 58.9274 23.6134 59.1797 23.2278 59.3217L17.1176 61.5701C16.984 61.6188 16.8624 61.6945 16.761 61.7921C16.6595 61.8897 16.5804 62.007 16.5289 62.1364L14.1509 68.0537C14.0006 68.4271 13.7376 68.7474 13.3965 68.9726C13.0553 69.1977 12.652 69.317 12.2397 69.3149C11.8274 69.3127 11.4255 69.1891 11.0869 68.9604C10.7482 68.7317 10.4888 68.4086 10.3427 68.0337L8.03068 62.0917C7.98034 61.9619 7.90248 61.8438 7.80214 61.7452C7.7018 61.6466 7.58124 61.5696 7.44829 61.5192L1.41755 59.2273C1.06248 59.098 0.750362 58.877 0.514747 58.5881C0.279132 58.2992 0.128925 57.9534 0.0802714 57.5877C0.0278698 57.1487 0.12767 56.7053 0.363846 56.3277C0.600023 55.9501 0.959057 55.66 1.38402 55.5034L7.49426 53.2551C7.62776 53.2061 7.74917 53.1304 7.8506 53.0328C7.95203 52.9353 8.0312 52.818 8.08298 52.6887L10.461 46.7715C10.6112 46.3981 10.8742 46.0777 11.2154 45.8526C11.5566 45.6275 11.9598 45.5081 12.3721 45.5103C12.7844 45.5125 13.1863 45.6361 13.525 45.8648C13.8636 46.0935 14.1231 46.4166 14.2691 46.7915L16.5812 52.7334C16.6313 52.8634 16.7091 52.9816 16.8094 53.0802C16.9098 53.1789 17.0305 53.2558 17.1636 53.3059L23.2484 55.6184C23.6324 55.7645 23.9619 56.0203 24.1934 56.352C24.425 56.6838 24.5478 57.076 24.5455 57.477Z" fill="#891B3A"/>
<path d="M34.2098 16.6438L34.2101 16.6437C34.4917 16.5402 34.731 16.3573 34.8988 16.1227C35.0662 15.8884 35.1553 15.6127 35.157 15.3318C35.1584 15.051 35.0724 14.7744 34.9076 14.5383L35.5225 14.1087L34.9076 14.5383C34.7425 14.302 34.5052 14.1166 34.2247 14.0101L34.2245 14.01L25.9845 10.8774C25.7432 10.7859 25.5229 10.6455 25.3384 10.4641C25.1539 10.2827 25.0093 10.0644 24.9154 9.8225L21.7836 1.77643L34.2098 16.6438ZM34.2098 16.6438L25.9355 19.6895M34.2098 16.6438L25.9355 19.6895M25.9355 19.6895C25.6932 19.7785 25.4713 19.9166 25.2849 20.096C25.0984 20.2753 24.9515 20.492 24.8548 20.7327C24.8548 20.7329 24.8547 20.733 24.8547 20.7331L21.6336 28.7458L25.9355 19.6895ZM19.565 1.10611C19.3182 1.26894 19.1312 1.49832 19.0251 1.76154L19.565 1.10611ZM19.565 1.10611L19.1521 0.480121M19.565 1.10611L19.1521 0.480121M19.1521 0.480121L19.565 1.10611C19.8122 0.943049 20.1066 0.855311 20.4094 0.856904M19.1521 0.480121L20.4094 0.856904M20.4094 0.856904C20.7121 0.858496 21.0056 0.949326 21.2509 1.11498M20.4094 0.856904L21.2509 1.11498M21.2509 1.11498C21.4959 1.2804 21.6803 1.51172 21.7834 1.77605L21.2509 1.11498ZM21.6334 28.7462C21.5274 29.0094 21.3404 29.2388 21.0936 29.4016L21.5057 30.0264L21.0936 29.4016C20.8464 29.5647 20.552 29.6524 20.2492 29.6508C19.9464 29.6492 19.653 29.5584 19.4077 29.3927C19.1627 29.2273 18.9783 28.996 18.8751 28.7317L21.6334 28.7462ZM18.875 28.7313L15.7432 20.6852C15.7431 20.6851 15.7431 20.6849 15.743 20.6848C15.6491 20.4431 15.5046 20.2249 15.3201 20.0436C15.1357 19.8623 14.9155 19.722 14.6744 19.6304C14.6743 19.6303 14.6742 19.6303 14.6741 19.6303L6.49228 16.521L6.4923 16.521L6.48426 16.518C6.22166 16.4216 5.99351 16.2588 5.82255 16.0493C5.65315 15.8418 5.54585 15.5959 5.50944 15.3379C5.4746 15.0322 5.54459 14.7225 5.71128 14.4565C5.8794 14.1882 6.13758 13.9782 6.44823 13.8641L6.44873 13.8639L14.7231 10.8182C14.7232 10.8182 14.7232 10.8181 14.7233 10.8181C14.7234 10.8181 14.7234 10.8181 14.7235 10.8181C14.9656 10.729 15.1873 10.591 15.3737 10.4117L14.8538 9.87128L15.3737 10.4117C15.5602 10.2323 15.7072 10.0154 15.8039 9.77458L19.025 1.76192L18.875 28.7313Z" stroke="#B09885" stroke-width="1.5"/>
</g>
<defs>
<clipPath id="clip0_405_11913">
<rect width="69.2522" height="71.2133" fill="white" transform="matrix(0.00556186 -0.999985 0.999986 0.00525972 0 69.251)"/>
</clipPath>
</defs>
</svg>
