<?xml version="1.0" encoding="UTF-8"?>
<svg width="1500px" height="907px" viewBox="0 0 1500 907" xmlns="http://www.w3.org/2000/svg">
    <!-- Generator: sketchtool 53 (72520) - https://sketchapp.com -->
    <title>05279F85-A56D-4222-A3EE-C524FCF2D118</title>
    <desc>Created with sketchtool.</desc>
    <defs>
        <polygon id="path-1"
                 points="0.216307271 0.0105465116 9.03233649 0.0105465116 9.03233649 8.82743023 0.216307271 8.82743023"></polygon>
    </defs>
    <g id="Page-1" stroke="none" stroke-width="1" fill="none" fill-rule="evenodd" opacity="0.024691">
        <g id="00-Homepage">
            <g id="Group-301" transform="translate(-4.000000, 0.000000)">
                <g id="Group-300">
                    <path d="M753.014943,122.799853 L753.014943,199.958623 L819.80441,238.532367 L886.596819,199.958623 L886.596819,122.799853 L819.80441,84.2241475 L753.014943,122.799853 Z M750.696909,200.623298 L750.696909,121.474917 C773.729637,108.168653 796.761384,94.8530691 819.80441,81.5620118 C842.851359,94.8530691 865.882125,108.168653 888.916814,121.474917 L888.916814,201.285031 C865.861038,214.554504 842.826349,227.87156 819.80441,241.197446 C796.786393,227.87156 773.751704,214.554504 750.696909,201.285031 L750.696909,200.623298 Z"
                          id="Fill-1" fill="#FFFFFF"></path>
                    <polygon id="Fill-3" fill="#FFFFFF"
                             points="751.280414 199.621086 819.230614 160.379723 820.380069 162.379146 752.429868 201.620508"></polygon>
                    <polygon id="Fill-5" fill="#FFFFFF"
                             points="820.380118 160.379919 888.331299 199.621282 887.183316 201.620214 819.230663 162.379342"></polygon>
                    <polygon id="Fill-7" fill="#FFFFFF"
                             points="818.645785 161.380268 820.966271 161.380268 820.966271 82.8936193 818.645785 82.8936193"></polygon>
                    <polygon id="Fill-9" fill="#FFFFFF"
                             points="818.645785 239.863974 820.966271 239.863974 820.966271 161.380268 818.645785 161.380268"></polygon>
                    <polygon id="Fill-11" fill="#FFFFFF"
                             points="819.230811 160.379919 887.182972 121.137085 888.331446 123.136508 820.380265 162.379342"></polygon>
                    <polygon id="Fill-13" fill="#FFFFFF"
                             points="752.429721 121.137331 820.379921 160.380165 819.230958 162.379096 751.280267 123.136753"></polygon>
                    <path d="M617.115082,201.285031 L617.115082,278.4438 L683.90553,317.019016 L750.696958,278.4438 L750.696958,201.285031 L683.90553,162.710797 L617.115082,201.285031 Z M614.797048,279.108476 L614.797048,199.958623 C637.831738,186.655302 660.862504,173.339718 683.90553,160.048661 C706.946594,173.339718 729.97736,186.655302 753.014992,199.958623 L753.014992,279.77168 C729.962158,293.041153 706.927469,306.358209 683.90553,319.683113 C660.885552,306.356247 637.850862,293.041153 614.797048,279.77168 L614.797048,279.108476 Z"
                          id="Fill-15" fill="#FFFFFF"></path>
                    <polygon id="Fill-17" fill="#FFFFFF"
                             points="615.380553 278.106753 683.333696 238.865391 684.479227 240.866285 616.530007 280.107157"></polygon>
                    <polygon id="Fill-19" fill="#FFFFFF"
                             points="684.487024 238.865587 752.433791 278.10695 751.276491 280.106863 683.327272 240.865991"></polygon>
                    <polygon id="Fill-21" fill="#FFFFFF"
                             points="682.748327 239.863974 685.06538 239.863974 685.06538 161.380268 682.748327 161.380268"></polygon>
                    <polygon id="Fill-23" fill="#FFFFFF"
                             points="682.748327 318.349642 685.06538 318.349642 685.06538 239.863974 682.748327 239.863974"></polygon>
                    <polygon id="Fill-25" fill="#FFFFFF"
                             points="683.327125 238.865587 751.276344 199.621282 752.433644 201.620214 684.486877 240.865991"></polygon>
                    <polygon id="Fill-27" fill="#FFFFFF"
                             points="616.529909 199.621086 684.479129 238.865391 683.334088 240.866285 615.380455 201.620508"></polygon>
                    <path d="M617.115082,358.25568 L617.115082,435.413959 L683.90553,473.989174 L750.696958,435.413959 L750.696958,358.257151 L683.90553,319.683408 L617.115082,358.25568 Z M614.797048,436.077163 L614.797048,356.930744 C637.835661,343.625951 660.862504,330.3035 683.908472,317.016857 C706.95444,330.302028 729.985206,343.613197 753.014992,356.928291 L753.014992,436.7438 C729.966081,450.025047 706.95444,463.370063 683.908472,476.6518 C660.862504,463.366139 637.850862,450.013274 614.797048,436.740367 L614.797048,436.077163 Z"
                          id="Fill-29" fill="#FFFFFF"></path>
                    <polygon id="Fill-31" fill="#FFFFFF"
                             points="615.380553 435.078825 683.333696 395.835991 684.479227 397.835414 616.530007 437.079229"></polygon>
                    <polygon id="Fill-33" fill="#FFFFFF"
                             points="684.479325 395.835991 752.429525 435.078825 751.280561 437.079229 683.333794 397.835414"></polygon>
                    <polygon id="Fill-35" fill="#FFFFFF"
                             points="682.748327 396.836291 685.06538 396.836291 685.06538 318.349642 682.748327 318.349642"></polygon>
                    <polygon id="Fill-37" fill="#FFFFFF"
                             points="682.748327 475.321959 685.06538 475.321959 685.06538 396.836291 682.748327 396.836291"></polygon>
                    <polygon id="Fill-39" fill="#FFFFFF"
                             points="683.327125 395.835991 751.276344 356.593157 752.433644 358.59258 684.486877 397.835414"></polygon>
                    <polygon id="Fill-41" fill="#FFFFFF"
                             points="616.529909 356.593402 684.479129 395.836236 683.334088 397.835659 615.380455 358.592825"></polygon>
                    <path d="M819.230811,397.835512 L750.697056,358.257151 L750.697056,278.443604 C773.729784,265.141264 796.761531,251.823718 819.804557,238.53217 L888.331446,278.106606 L887.182972,280.10701 L819.804557,241.19774 L753.01509,279.771974 L753.01509,356.930744 L820.380265,395.836089 L819.230811,397.835512 Z"
                          id="Fill-43" fill="#FFFFFF"></path>
                    <polygon id="Fill-45" fill="#FFFFFF"
                             points="751.280414 356.593402 819.230614 317.350568 820.380069 319.349991 752.429868 358.592825"></polygon>
                    <polygon id="Fill-47" fill="#FFFFFF"
                             points="820.380118 317.350323 888.331299 356.593157 887.183316 358.59258 819.230663 319.349746"></polygon>
                    <polygon id="Fill-49" fill="#FFFFFF"
                             points="818.645785 318.349642 820.966271 318.349642 820.966271 239.863974 818.645785 239.863974"></polygon>
                    <polygon id="Fill-51" fill="#FFFFFF"
                             points="818.645785 396.836291 820.966271 396.836291 820.966271 318.349642 818.645785 318.349642"></polygon>
                    <polygon id="Fill-53" fill="#FFFFFF"
                             points="819.230811 317.350323 887.182972 278.106999 888.331446 280.106912 820.380265 319.349746"></polygon>
                    <polygon id="Fill-55" fill="#FFFFFF"
                             points="752.429721 278.106753 820.379921 317.350078 819.230958 319.349991 751.280267 280.107157"></polygon>
                    <path d="M345.31281,279.771925 L345.31281,356.930695 L412.103258,395.502476 L478.895667,356.928732 L478.895667,279.773397 L412.103258,241.199653 L345.31281,279.771925 Z M342.995757,357.593408 L342.995757,278.443555 C366.032408,265.141215 389.062193,251.817783 412.107181,238.532121 C435.152168,251.817783 458.184896,265.129443 481.21272,278.442574 L481.21272,358.259065 C458.167242,371.53933 435.132062,384.849518 412.107181,398.169027 C389.081318,384.849518 366.051042,371.526576 342.995757,358.257593 L342.995757,357.593408 Z"
                          id="Fill-57" fill="#FFFFFF"></path>
                    <polygon id="Fill-59" fill="#FFFFFF"
                             points="343.582106 356.593402 411.530345 317.350568 412.68029 319.349991 344.729109 358.592825"></polygon>
                    <polygon id="Fill-61" fill="#FFFFFF"
                             points="412.685193 317.350323 480.633922 356.593157 479.475151 358.59258 411.525441 319.349746"></polygon>
                    <polygon id="Fill-63" fill="#FFFFFF"
                             points="410.946546 318.349642 413.263598 318.349642 413.263598 239.863974 410.946546 239.863974"></polygon>
                    <polygon id="Fill-65" fill="#FFFFFF"
                             points="410.946546 396.836291 413.263598 396.836291 413.263598 318.349642 410.946546 318.349642"></polygon>
                    <polygon id="Fill-67" fill="#FFFFFF"
                             points="411.53059 317.350323 479.478829 278.106999 480.628283 280.106912 412.680535 319.349746"></polygon>
                    <polygon id="Fill-69" fill="#FFFFFF"
                             points="344.72906 278.106753 412.68024 317.350078 411.530786 319.349991 343.582057 280.107157"></polygon>
                    <path d="M683.333843,633.292515 L614.797146,593.712193 L614.797146,513.900608 C637.850961,500.631625 660.881727,487.30672 683.90857,473.989174 L752.433497,513.565572 L751.276687,515.564995 L683.905628,476.655725 L617.11518,515.226035 L617.11518,592.386276 L684.479374,631.292112 L683.333843,633.292515 Z"
                          id="Fill-71" fill="#FFFFFF"></path>
                    <polygon id="Fill-73" fill="#FFFFFF"
                             points="615.380553 592.047267 683.333696 552.806395 684.479227 554.80778 616.530007 594.04767"></polygon>
                    <polygon id="Fill-75" fill="#FFFFFF"
                             points="684.487024 552.806346 752.433791 592.047218 751.276491 594.047621 683.327272 554.80773"></polygon>
                    <polygon id="Fill-77" fill="#FFFFFF"
                             points="682.748327 553.804684 685.06538 553.804684 685.06538 475.321959 682.748327 475.321959"></polygon>
                    <polygon id="Fill-79" fill="#FFFFFF"
                             points="682.748327 632.290842 685.06538 632.290842 685.06538 553.804684 682.748327 553.804684"></polygon>
                    <polygon id="Fill-81" fill="#FFFFFF"
                             points="683.333843 552.806346 751.28061 513.565474 752.429574 515.564896 684.479374 554.80773"></polygon>
                    <polygon id="Fill-83" fill="#FFFFFF"
                             points="616.529909 513.565474 684.479129 552.806346 683.334088 554.80773 615.380455 515.564896"></polygon>
                    <path d="M481.212671,436.740121 L481.212671,513.900853 L548.00508,552.475087 L614.79749,513.900853 L614.79749,436.740121 L548.00508,398.166868 L481.212671,436.740121 Z M478.895618,514.563567 L478.895618,435.414204 C501.930307,422.109412 524.962054,408.79579 548.00508,395.504242 C571.047616,408.79579 594.076911,422.109412 617.115033,435.414204 L617.115033,515.225789 C594.076911,528.531563 571.047616,541.847637 548.00508,555.137223 C524.962054,541.847637 501.930307,528.531563 478.895618,515.225789 L478.895618,514.563567 Z"
                          id="Fill-85" fill="#FFFFFF"></path>
                    <polygon id="Fill-87" fill="#FFFFFF"
                             points="479.479074 513.565474 547.430745 474.320678 548.577748 476.3201 480.628528 515.564896"></polygon>
                    <polygon id="Fill-89" fill="#FFFFFF"
                             points="548.577846 474.320678 616.530007 513.565474 615.380553 515.564896 547.430843 476.3201"></polygon>
                    <polygon id="Fill-91" fill="#FFFFFF"
                             points="546.846456 475.321959 549.163018 475.321959 549.163018 396.836291 546.846456 396.836291"></polygon>
                    <polygon id="Fill-93" fill="#FFFFFF"
                             points="546.846456 553.804684 549.163018 553.804684 549.163018 475.321959 546.846456 475.321959"></polygon>
                    <polygon id="Fill-95" fill="#FFFFFF"
                             points="547.430892 474.320678 615.380602 435.078825 616.530056 437.079229 548.577895 476.3201"></polygon>
                    <polygon id="Fill-97" fill="#FFFFFF"
                             points="480.62843 435.078825 548.57765 474.320678 547.431138 476.3201 479.478976 437.079229"></polygon>
                    <path d="M481.212671,593.712438 L481.212671,670.869246 L548.00508,709.447404 L614.79749,670.869246 L614.79749,593.712438 L548.00508,555.137223 L481.212671,593.712438 Z M478.895618,671.534902 L478.895618,592.386521 C501.951394,579.117047 524.983631,565.800482 548.00508,552.475087 C571.026039,565.800482 594.062199,579.117047 617.115033,592.386521 L617.115033,672.198106 C594.076911,685.499955 571.047616,698.817502 548.00508,712.110031 C524.962054,698.817502 501.930307,685.499955 478.895618,672.198106 L478.895618,671.534902 Z"
                          id="Fill-99" fill="#FFFFFF"></path>
                    <polygon id="Fill-101" fill="#FFFFFF"
                             points="479.479074 670.533916 547.430745 631.292063 548.577748 633.292466 480.628528 672.533338"></polygon>
                    <polygon id="Fill-103" fill="#FFFFFF"
                             points="548.577846 631.292014 616.530007 670.533867 615.380553 672.533289 547.430843 633.292417"></polygon>
                    <polygon id="Fill-105" fill="#FFFFFF"
                             points="546.846456 632.290842 549.163018 632.290842 549.163018 553.804684 546.846456 553.804684"></polygon>
                    <polygon id="Fill-107" fill="#FFFFFF"
                             points="546.846456 710.777001 549.163018 710.777001 549.163018 632.290842 546.846456 632.290842"></polygon>
                    <polygon id="Fill-109" fill="#FFFFFF"
                             points="547.430892 631.292014 615.380602 592.047218 616.530056 594.047621 548.577895 633.292417"></polygon>
                    <polygon id="Fill-111" fill="#FFFFFF"
                             points="480.62843 592.047267 548.57765 631.292063 547.431138 633.292466 479.478976 594.04767"></polygon>
                    <path d="M888.916716,44.3170796 L888.916716,121.472415 L955.708145,160.04665 L1022.49712,121.474868 L1022.49712,44.3146269 L955.708145,5.74235484 L888.916716,44.3170796 Z M886.597212,122.1366 L886.597212,42.9877286 C909.626507,29.672635 932.670023,16.3810871 955.699808,3.07629481 C978.759997,16.3438064 1001.77703,29.6844078 1024.81466,42.9896907 L1024.81466,122.801276 C1001.75791,136.07075 978.741853,149.411842 955.699808,162.71271 C932.690128,149.375542 909.642199,136.082032 886.597212,122.803238 L886.597212,122.1366 Z"
                          id="Fill-113" fill="#FFFFFF"></path>
                    <polygon id="Fill-115" fill="#FFFFFF"
                             points="887.175469 121.137331 955.12567 81.8935156 956.28297 83.8939191 888.338164 123.136753"></polygon>
                    <polygon id="Fill-117" fill="#FFFFFF"
                             points="956.279047 81.8933194 1024.22876 121.137134 1023.08028 123.136557 955.128612 83.8937229"></polygon>
                    <polygon id="Fill-119" fill="#FFFFFF"
                             points="954.547167 82.8936193 956.8652 82.8936193 956.8652 4.40942293 954.547167 4.40942293"></polygon>
                    <polygon id="Fill-121" fill="#FFFFFF"
                             points="954.547167 161.380268 956.8652 161.380268 956.8652 82.8936193 954.547167 82.8936193"></polygon>
                    <polygon id="Fill-123" fill="#FFFFFF"
                             points="955.128759 81.8933194 1023.07994 42.6524476 1024.22841 44.6523605 956.279194 83.8937229"></polygon>
                    <polygon id="Fill-125" fill="#FFFFFF"
                             points="888.331495 42.6523985 956.279243 81.8932704 955.128808 83.8936738 887.183021 44.6523115"></polygon>
                    <path d="M1226.34615,239.863925 L1226.34615,160.717015 C1249.38182,147.411732 1272.4121,134.096148 1295.45905,120.805582 C1318.50256,134.096148 1341.53333,147.411732 1364.56753,160.717015 L1364.56753,239.863925 L1362.24704,239.863925 L1362.24704,162.042442 L1295.45905,123.468208 L1228.66566,162.042442 L1228.66566,239.863925 L1226.34615,239.863925 Z"
                          id="Fill-127" fill="#FFFFFF"></path>
                    <polygon id="Fill-129" fill="#FFFFFF"
                             points="1226.93137 238.865587 1294.88452 199.621282 1296.03495 201.620214 1228.07985 240.865991"></polygon>
                    <polygon id="Fill-131" fill="#FFFFFF"
                             points="1296.0349 199.621086 1363.98314 238.865391 1362.8332 240.866285 1294.88447 201.620508"></polygon>
                    <polygon id="Fill-133" fill="#FFFFFF"
                             points="1294.29768 200.623102 1296.61718 200.623102 1296.61718 122.136453 1294.29768 122.136453"></polygon>
                    <polygon id="Fill-135" fill="#FFFFFF"
                             points="1294.29768 279.10877 1296.61718 279.10877 1296.61718 200.623102 1294.29768 200.623102"></polygon>
                    <polygon id="Fill-137" fill="#FFFFFF"
                             points="1294.88461 199.621086 1362.83285 160.379723 1363.98329 162.379146 1296.03505 201.620508"></polygon>
                    <polygon id="Fill-139" fill="#FFFFFF"
                             points="1228.0797 160.379919 1296.0348 199.621282 1294.88437 201.620214 1226.93123 162.379342"></polygon>
                    <path d="M481.212671,122.799853 L481.212671,199.958623 L548.00508,238.532367 L614.79749,199.958623 L614.79749,122.799853 L548.00508,84.2241475 L481.212671,122.799853 Z M478.895618,200.623298 L478.895618,121.474917 C501.930307,108.168653 524.962054,94.8530691 548.00508,81.5620118 C571.047616,94.8530691 594.076911,108.168653 617.115033,121.474917 L617.115033,201.285031 C594.062199,214.554504 571.026039,227.87156 548.00508,241.197446 C524.983631,227.87156 501.951394,214.554504 478.895618,201.285031 L478.895618,200.623298 Z"
                          id="Fill-141" fill="#FFFFFF"></path>
                    <polygon id="Fill-143" fill="#FFFFFF"
                             points="479.479074 199.621086 547.430745 160.379723 548.577748 162.379146 480.628528 201.620508"></polygon>
                    <polygon id="Fill-145" fill="#FFFFFF"
                             points="548.577846 160.379919 616.530007 199.621282 615.380553 201.620214 547.430843 162.379342"></polygon>
                    <polygon id="Fill-147" fill="#FFFFFF"
                             points="546.846456 161.380268 549.163018 161.380268 549.163018 82.8936193 546.846456 82.8936193"></polygon>
                    <polygon id="Fill-149" fill="#FFFFFF"
                             points="546.846456 239.863974 549.163018 239.863974 549.163018 161.380268 546.846456 161.380268"></polygon>
                    <polygon id="Fill-151" fill="#FFFFFF"
                             points="547.430892 160.379919 615.380602 121.137085 616.530056 123.136508 548.577895 162.379342"></polygon>
                    <polygon id="Fill-153" fill="#FFFFFF"
                             points="480.62843 121.137331 548.57765 160.380165 547.431138 162.379096 479.478976 123.136753"></polygon>
                    <path d="M1294.88461,278.106753 L1363.40856,238.532318 C1386.45208,251.823375 1409.48137,265.141412 1432.51606,278.443751 L1432.51606,358.257299 C1409.46225,371.52481 1386.42805,384.841866 1363.40856,398.168732 L1294.88461,358.592825 L1296.03505,356.593402 L1363.40856,395.504634 L1430.19852,356.9304 L1430.19852,279.772121 L1363.40856,241.197396 L1296.03505,280.107157 L1294.88461,278.106753 Z"
                          id="Fill-155" fill="#FFFFFF"></path>
                    <polygon id="Fill-157" fill="#FFFFFF"
                             points="1294.88461 356.593402 1362.83285 317.350568 1363.98329 319.349991 1296.03505 358.592825"></polygon>
                    <polygon id="Fill-159" fill="#FFFFFF"
                             points="1363.98339 317.350323 1431.93261 356.593157 1430.78462 358.59258 1362.83295 319.349746"></polygon>
                    <polygon id="Fill-161" fill="#FFFFFF"
                             points="1362.24739 318.349642 1364.56787 318.349642 1364.56787 239.863974 1362.24739 239.863974"></polygon>
                    <polygon id="Fill-163" fill="#FFFFFF"
                             points="1362.24739 396.836291 1364.56787 396.836291 1364.56787 318.349642 1362.24739 318.349642"></polygon>
                    <polygon id="Fill-165" fill="#FFFFFF"
                             points="1362.8331 317.350323 1430.78428 278.106999 1431.93275 280.106912 1363.98353 319.349746"></polygon>
                    <polygon id="Fill-167" fill="#FFFFFF"
                             points="1296.0349 278.106753 1363.98314 317.350078 1362.8332 319.349991 1294.88447 280.107157"></polygon>
                    <path d="M345.31281,515.225789 L345.31281,592.386521 L412.103258,630.956831 L478.895667,592.382597 L478.895667,515.229714 L412.103258,476.655479 L345.31281,515.225789 Z M342.995757,593.049234 L342.995757,513.900853 C366.051042,500.631379 389.081318,487.306475 412.107181,473.989419 C435.132062,487.306475 458.167242,500.620097 481.21272,513.896929 L481.21272,593.712438 C458.184896,607.029494 435.152168,620.33772 412.107181,633.623872 C389.062193,620.33772 366.032408,607.017231 342.995757,593.712438 L342.995757,593.049234 Z"
                          id="Fill-169" fill="#FFFFFF"></path>
                    <polygon id="Fill-171" fill="#FFFFFF"
                             points="343.582106 592.047267 411.530345 552.806395 412.68029 554.80778 344.729109 594.04767"></polygon>
                    <polygon id="Fill-173" fill="#FFFFFF"
                             points="412.685193 552.806346 480.633922 592.047218 479.475151 594.047621 411.525441 554.80773"></polygon>
                    <polygon id="Fill-175" fill="#FFFFFF"
                             points="410.946546 553.804684 413.263598 553.804684 413.263598 475.321959 410.946546 475.321959"></polygon>
                    <polygon id="Fill-177" fill="#FFFFFF"
                             points="410.946546 632.290842 413.263598 632.290842 413.263598 553.804684 410.946546 553.804684"></polygon>
                    <polygon id="Fill-179" fill="#FFFFFF"
                             points="411.53059 552.806346 479.478829 513.565474 480.628283 515.564896 412.680535 554.80773"></polygon>
                    <polygon id="Fill-181" fill="#FFFFFF"
                             points="344.72906 513.565474 412.68024 552.806346 411.530786 554.80773 343.582057 515.564896"></polygon>
                    <path d="M209.412998,672.198106 L209.412998,749.359819 L276.203446,787.930129 L342.995855,749.359819 L342.995855,672.198106 L276.203446,633.623872 L209.412998,672.198106 Z M207.095945,750.021551 L207.095945,670.869246 C230.147798,657.600263 253.182978,644.286641 276.203446,630.961736 C299.226366,644.286641 322.260565,657.600263 345.312908,670.869246 L345.312908,750.684755 C322.278709,763.986114 299.247452,777.30317 276.203446,790.593246 C253.161401,777.30317 230.131125,763.986114 207.095945,750.684755 L207.095945,750.021551 Z"
                          id="Fill-183" fill="#FFFFFF"></path>
                    <polygon id="Fill-185" fill="#FFFFFF"
                             points="207.678911 749.019584 275.629111 709.779693 276.778075 711.777644 208.828365 751.019497"></polygon>
                    <polygon id="Fill-187" fill="#FFFFFF"
                             points="276.778173 709.779644 344.728863 749.019535 343.582351 751.019448 275.629209 711.777595"></polygon>
                    <polygon id="Fill-189" fill="#FFFFFF"
                             points="275.046636 710.777001 277.362708 710.777001 277.362708 632.290842 275.046636 632.290842"></polygon>
                    <polygon id="Fill-191" fill="#FFFFFF"
                             points="275.046636 789.263159 277.362708 789.263159 277.362708 710.777001 275.046636 710.777001"></polygon>
                    <polygon id="Fill-193" fill="#FFFFFF"
                             points="275.629307 709.779644 343.581959 670.533867 344.728961 672.533289 276.778271 711.777595"></polygon>
                    <polygon id="Fill-195" fill="#FFFFFF"
                             points="208.828267 670.533916 276.777977 709.779693 275.629503 711.777644 207.678813 672.533338"></polygon>
                    <path d="M1362.24695,161.38017 L1362.24695,80.8940988 L1433.66169,122.136846 L1362.24695,163.381555 L1362.24695,161.38017 Z M1364.56743,84.8949057 L1364.56743,159.377805 L1429.05161,122.136846 L1364.56743,84.8949057 Z"
                          id="Fill-197" fill="#FFFFFF"></path>
                    <path d="M1226.34615,80.8911555 L1226.34615,6.41316203 L1161.86491,43.6526493 L1226.34615,80.8911555 Z M1228.66566,4.40932482 L1228.66222,84.8949057 C1204.86597,71.1348965 1181.05697,57.3949992 1157.24944,43.6511777 L1228.66222,2.40548761 L1228.66566,4.40932482 Z"
                          id="Fill-199" fill="#FFFFFF"></path>
                    <path d="M1498.14872,237.861559 L1498.14872,163.381604 L1433.66552,200.621091 L1498.14872,237.861559 Z M1500.46577,161.380219 L1500.46577,241.870215 C1476.6656,228.109715 1452.86101,214.361479 1429.04906,200.625015 L1500.46577,159.379816 L1500.46577,161.380219 Z"
                          id="Fill-201" fill="#FFFFFF"></path>
                    <path d="M1498.14872,473.318563 L1498.14872,398.835664 L1433.66552,436.077114 L1498.14872,473.318563 Z M1500.46577,396.836242 L1500.46577,477.326238 C1476.66118,463.574077 1452.86101,449.817992 1429.04906,436.081038 L1500.46577,394.835838 L1500.46577,396.836242 Z"
                          id="Fill-203" fill="#FFFFFF"></path>
                    <path d="M342.995953,434.077642 L342.995953,359.594743 L278.510298,396.836193 L342.995953,434.077642 Z M345.313006,357.593359 L345.313006,438.076487 C321.504495,424.33708 297.711676,410.572166 273.89728,396.836193 L345.313006,355.592955 L345.313006,357.593359 Z"
                          id="Fill-205" fill="#FFFFFF"></path>
                    <path d="M410.94684,789.26311 L410.94684,708.773605 L482.362566,750.018804 C458.565824,763.782738 434.759274,777.530974 410.94684,791.263513 L410.94684,789.26311 Z M413.263893,712.781279 L413.263893,787.259273 L477.744644,750.021748 L413.263893,712.781279 Z"
                          id="Fill-207" fill="#FFFFFF"></path>
                    <path d="M139.146677,630.29039 L139.146677,555.807981 L74.660041,593.049431 L139.146677,630.29039 Z M141.463239,553.804635 L141.463239,634.290706 L70.046532,593.049431 L141.463239,551.804231 L141.463239,553.804635 Z"
                          id="Fill-209" fill="#FFFFFF"></path>
                    <path d="M1022.49688,200.623249 L1022.49688,121.474868 C1045.53157,108.168604 1068.56282,94.8530201 1091.60928,81.5619627 C1114.65133,94.8530201 1137.68209,108.168604 1160.71629,121.474868 L1160.71629,279.108917 L1158.39875,279.108917 L1158.39875,122.799804 L1091.60928,84.2240985 L1024.81491,122.799804 L1024.81491,200.623249 L1022.49688,200.623249 Z"
                          id="Fill-211" fill="#FFFFFF"></path>
                    <polygon id="Fill-213" fill="#FFFFFF"
                             points="1090.44806 239.863974 1092.76609 239.863974 1092.76609 82.8936193 1090.44806 82.8936193"></polygon>
                    <path d="M886.596966,436.077163 L886.596966,199.958427 C909.634598,186.655106 932.662422,173.340012 955.704467,160.048465 L1160.13421,278.106606 L1158.98475,280.10701 L955.704467,162.711091 L888.916471,201.284835 L888.916471,436.077163 L886.596966,436.077163 Z"
                          id="Fill-215" fill="#FFFFFF"></path>
                    <polygon id="Fill-217" fill="#FFFFFF"
                             points="954.547167 396.836291 956.8652 396.836291 956.8652 161.380268 954.547167 161.380268"></polygon>
                    <polygon id="Fill-219" fill="#FFFFFF"
                             points="1226.3465 475.321959 1228.666 475.321959 1228.666 239.863974 1226.3465 239.863974"></polygon>
                    <path d="M1090.4482,906.990189 L1090.4482,317.687419 C1136.13312,291.300047 1181.80578,264.893544 1227.50492,238.53217 C1250.55187,251.823718 1273.58166,265.141264 1296.61733,278.443604 L1296.61733,514.563812 L1294.29733,514.563812 L1294.29733,279.771974 L1227.50492,241.19774 L1092.76624,319.012355 L1092.76624,906.990189 L1090.4482,906.990189 Z"
                          id="Fill-221" fill="#FFFFFF"></path>
                    <path d="M818.645589,906.990189 L818.645589,474.655812 C887.039585,435.290344 955.302158,395.688438 1023.65496,356.261653 L1092.17989,395.836089 L1091.03338,397.835512 L1023.65496,358.92428 L820.966074,475.984672 L820.966074,906.990189 L818.645589,906.990189 Z"
                          id="Fill-223" fill="#FFFFFF"></path>
                    <path d="M750.697105,906.990189 L750.697105,435.413959 C796.382025,409.027568 842.052723,382.610764 887.757748,356.260182 L956.282676,395.836089 L955.125866,397.835512 L887.753825,358.925751 L753.015139,436.740367 L753.015139,906.990189 L750.697105,906.990189 Z"
                          id="Fill-225" fill="#FFFFFF"></path>
                    <polygon id="Fill-227" fill="#FFFFFF"
                             points="1022.49688 906.990189 1024.81491 906.990189 1024.81491 357.593457 1022.49688 357.593457"></polygon>
                    <path d="M1362.24695,710.777001 L1362.24695,554.466906 L1159.55953,437.410929 L1092.17964,476.320198 L1091.03362,474.320776 L1159.55561,434.748302 C1227.94764,474.112789 1296.17295,513.776993 1364.56743,553.14148 L1364.56743,710.777001 L1362.24695,710.777001 Z"
                          id="Fill-229" fill="#FFFFFF"></path>
                    <path d="M1498.14872,906.990189 L1498.14872,554.466906 L1295.45934,437.410929 L1228.07995,476.320198 L1226.93147,474.320776 L1295.45444,434.748302 C1363.84941,474.112789 1432.07374,513.776993 1500.46577,553.14148 L1500.46577,906.990189 L1498.14872,906.990189 Z"
                          id="Fill-231" fill="#FFFFFF"></path>
                    <path d="M1430.19832,906.990189 L1430.19832,750.68451 L1295.45915,672.864989 L1228.66576,711.440204 L1228.66576,906.990189 L1226.34625,906.990189 L1226.34625,710.114778 C1249.40154,696.843832 1272.43721,683.526286 1295.45915,670.201872 C1341.11268,696.628487 1386.79564,723.040386 1432.51636,749.354668 L1432.51636,906.990189 L1430.19832,906.990189 Z"
                          id="Fill-233" fill="#FFFFFF"></path>
                    <polygon id="Fill-235" fill="#FFFFFF"
                             points="1158.39826 906.990189 1160.71629 906.990189 1160.71629 436.077163 1158.39826 436.077163"></polygon>
                    <polygon id="Fill-237" fill="#FFFFFF"
                             points="1294.29768 906.990189 1296.61718 906.990189 1296.61718 671.535148 1294.29768 671.535148"></polygon>
                    <path d="M682.748622,906.990189 L682.748622,631.623714 C705.793609,618.346392 728.838596,605.052882 751.851218,591.715714 L820.380069,631.292112 L819.230614,633.292515 L751.859064,594.383246 L685.065674,632.956989 L685.065674,906.990189 L682.748622,906.990189 Z"
                          id="Fill-239" fill="#FFFFFF"></path>
                    <path d="M887.757797,350.245874 C891.813252,350.245874 895.102241,353.534914 895.102241,357.593604 C895.102241,361.648861 891.813252,364.939863 887.757797,364.939863 C883.700871,364.939863 880.411883,361.648861 880.411883,357.593604 C880.411883,353.534914 883.700871,350.245874 887.757797,350.245874"
                          id="Fill-241" fill="#FFFFFF"></path>
                    <path d="M955.704369,167.744426 C952.193237,167.744426 949.34265,164.894415 949.34265,161.380219 C949.34265,157.86308 952.193237,155.012579 955.704369,155.012579 C959.221385,155.012579 962.06952,157.86308 962.06952,161.380219 C962.06952,164.894415 959.221385,167.744426 955.704369,167.744426"
                          id="Fill-243" fill="#FFFFFF"></path>
                    <path d="M1023.65864,127.52366 C1020.68202,127.52366 1018.27229,125.110717 1018.27229,122.1366 C1018.27229,119.160522 1020.68202,116.74905 1023.65864,116.74905 C1026.63084,116.74905 1029.04303,119.160522 1029.04303,122.1366 C1029.04303,125.110717 1026.63084,127.52366 1023.65864,127.52366"
                          id="Fill-245" fill="#FFFFFF"></path>
                    <path d="M887.757797,196.213925 C890.188618,196.213925 892.162404,198.187349 892.162404,200.623347 C892.162404,203.055913 890.188618,205.030318 887.757797,205.030318 C885.325015,205.030318 883.348287,203.055913 883.348287,200.623347 C883.348287,198.187349 885.325015,196.213925 887.757797,196.213925"
                          id="Fill-247" fill="#FFFFFF"></path>
                    <path d="M887.757797,274.699838 C890.188618,274.699838 892.162404,276.673262 892.162404,279.10877 C892.162404,281.542316 890.188618,283.51574 887.757797,283.51574 C885.325015,283.51574 883.348287,281.542316 883.348287,279.10877 C883.348287,276.673262 885.325015,274.699838 887.757797,274.699838"
                          id="Fill-249" fill="#FFFFFF"></path>
                    <path d="M751.858917,441.466332 C748.882302,441.466332 746.470606,439.050936 746.470606,436.07731 C746.470606,433.103194 748.882302,430.687797 751.858917,430.687797 C754.83161,430.687797 757.241835,433.103194 757.241835,436.07731 C757.241835,439.050936 754.83161,441.466332 751.858917,441.466332"
                          id="Fill-251" fill="#FFFFFF"></path>
                    <path d="M683.905628,638.657747 C680.393515,638.657747 677.542928,635.807245 677.542928,632.294031 C677.542928,628.777873 680.393515,625.926881 683.905628,625.926881 C687.419701,625.926881 690.273722,628.777873 690.273722,632.294031 C690.273722,635.807245 687.419701,638.657747 683.905628,638.657747"
                          id="Fill-253" fill="#FFFFFF"></path>
                    <path d="M819.804508,392.429075 C822.23729,392.429075 824.214018,394.401028 824.214018,396.836046 C824.214018,399.270573 822.23729,401.243506 819.804508,401.243506 C817.374668,401.243506 815.399901,399.270573 815.399901,396.836046 C815.399901,394.401028 817.374668,392.429075 819.804508,392.429075"
                          id="Fill-255" fill="#FFFFFF"></path>
                    <path d="M751.855092,510.156596 C754.288856,510.156596 756.264603,512.128549 756.264603,514.563567 C756.264603,516.998094 754.288856,518.971027 751.855092,518.971027 C749.420348,518.971027 747.449505,516.998094 747.449505,514.563567 C747.449505,512.128549 749.420348,510.156596 751.855092,510.156596"
                          id="Fill-257" fill="#FFFFFF"></path>
                    <path d="M751.855092,588.642264 C754.288856,588.642264 756.264603,590.614217 756.264603,593.049234 C756.264603,595.484743 754.288856,597.456695 751.855092,597.456695 C749.420348,597.456695 747.449505,595.484743 747.449505,593.049234 C747.449505,590.614217 749.420348,588.642264 751.855092,588.642264"
                          id="Fill-259" fill="#FFFFFF"></path>
                    <path d="M1295.45929,285.474154 C1291.94228,285.474154 1289.09463,282.623653 1289.09463,279.108476 C1289.09463,275.591827 1291.94228,272.739364 1295.45929,272.739364 C1298.97533,272.739364 1301.82395,275.591827 1301.82395,279.108476 C1301.82395,282.623653 1298.97533,285.474154 1295.45929,285.474154"
                          id="Fill-261" fill="#FFFFFF"></path>
                    <path d="M1227.50507,235.456759 C1229.93883,235.456759 1231.91458,237.430673 1231.91458,239.863729 C1231.91458,242.299728 1229.93883,244.272661 1227.50507,244.272661 C1225.07523,244.272661 1223.10047,242.299728 1223.10047,239.863729 C1223.10047,237.430673 1225.07523,235.456759 1227.50507,235.456759"
                          id="Fill-263" fill="#FFFFFF"></path>
                    <path d="M1295.45929,362.980664 C1292.48072,362.980664 1290.07196,360.565268 1290.07196,357.590661 C1290.07196,354.616545 1292.48072,352.204091 1295.45929,352.204091 C1298.43297,352.204091 1300.84319,354.616545 1300.84319,357.590661 C1300.84319,360.565268 1298.43297,362.980664 1295.45929,362.980664"
                          id="Fill-265" fill="#FFFFFF"></path>
                    <path d="M751.855092,271.762119 C755.911037,271.762119 759.201007,275.049197 759.201007,279.108868 C759.201007,283.165596 755.911037,286.454146 751.855092,286.454146 C747.799637,286.454146 744.509668,283.165596 744.509668,279.108868 C744.509668,275.049197 747.799637,271.762119 751.855092,271.762119"
                          id="Fill-267" fill="#FFFFFF"></path>
                    <path d="M751.855092,128.503995 C748.341019,128.503995 745.493373,125.651532 745.493373,122.136846 C745.493373,118.619216 748.341019,115.769205 751.855092,115.769205 C755.370147,115.769205 758.220244,118.619216 758.220244,122.136846 C758.220244,125.651532 755.370147,128.503995 751.855092,128.503995"
                          id="Fill-269" fill="#FFFFFF"></path>
                    <path d="M955.708194,88.2810717 C952.731578,88.2810717 950.321844,85.8676374 950.321844,82.891559 C950.321844,79.9179333 952.731578,77.5064611 955.708194,77.5064611 C958.680886,77.5064611 961.092092,79.9179333 961.092092,82.891559 C961.092092,85.8676374 958.680886,88.2810717 955.708194,88.2810717"
                          id="Fill-271" fill="#FFFFFF"></path>
                    <path d="M548.00508,156.973004 C550.438353,156.973004 552.411158,158.944956 552.411158,161.379974 C552.411158,163.814501 550.438353,165.786944 548.00508,165.786944 C545.571317,165.786944 543.597531,163.814501 543.597531,161.379974 C543.597531,158.944956 545.571317,156.973004 548.00508,156.973004"
                          id="Fill-273" fill="#FFFFFF"></path>
                    <path d="M615.9543,507.218191 C620.013187,507.218191 623.300214,510.507231 623.300214,514.563959 C623.300214,518.619215 620.013187,521.908255 615.9543,521.908255 C611.898845,521.908255 608.611818,518.619215 608.611818,514.563959 C608.611818,510.507231 611.898845,507.218191 615.9543,507.218191"
                          id="Fill-275" fill="#FFFFFF"></path>
                    <path d="M412.105759,638.657747 C408.589233,638.657747 405.741097,635.807245 405.741097,632.294031 C405.741097,628.777873 408.589233,625.926881 412.105759,625.926881 C415.621303,625.926881 418.47042,628.777873 418.47042,632.294031 C418.47042,635.807245 415.621303,638.657747 412.105759,638.657747"
                          id="Fill-277" fill="#FFFFFF"></path>
                    <path d="M548.00508,637.679521 C545.030916,637.679521 542.621182,635.264124 542.621182,632.290989 C542.621182,629.316382 545.030916,626.905891 548.00508,626.905891 C550.980715,626.905891 553.391921,629.316382 553.391921,632.290989 C553.391921,635.264124 550.980715,637.679521 548.00508,637.679521"
                          id="Fill-279" fill="#FFFFFF"></path>
                    <path d="M480.054684,431.669996 C482.487466,431.669996 484.461252,433.642439 484.461252,436.076967 C484.461252,438.512475 482.487466,440.484427 480.054684,440.484427 C477.620921,440.484427 475.648116,438.512475 475.648116,436.076967 C475.648116,433.642439 477.620921,431.669996 480.054684,431.669996"
                          id="Fill-281" fill="#FFFFFF"></path>
                    <path d="M1295.45929,206.007415 C1292.48072,206.007415 1290.07196,203.594962 1290.07196,200.621336 C1290.07196,197.64722 1292.48072,195.233786 1295.45929,195.233786 C1298.43297,195.233786 1300.84319,197.64722 1300.84319,200.621336 C1300.84319,203.594962 1298.43297,206.007415 1295.45929,206.007415"
                          id="Fill-283" fill="#FFFFFF"></path>
                    <path d="M1431.35915,274.699838 C1433.79292,274.699838 1435.76376,276.673262 1435.76376,279.10877 C1435.76376,281.542316 1433.79292,283.51574 1431.35915,283.51574 C1428.92441,283.51574 1426.95357,281.542316 1426.95357,279.10877 C1426.95357,276.673262 1428.92441,274.699838 1431.35915,274.699838"
                          id="Fill-285" fill="#FFFFFF"></path>
                    <path d="M548.00508,313.942426 C550.438353,313.942426 552.411158,315.914869 552.411158,318.349397 C552.411158,320.784905 550.438353,322.756857 548.00508,322.756857 C545.571317,322.756857 543.597531,320.784905 543.597531,318.349397 C543.597531,315.914869 545.571317,313.942426 548.00508,313.942426"
                          id="Fill-287" fill="#FFFFFF"></path>
                    <path d="M276.206388,549.397517 C278.640151,549.397517 280.611975,551.372903 280.611975,553.804487 C280.611975,556.239015 278.640151,558.215872 276.206388,558.215872 C273.771644,558.215872 271.79982,556.239015 271.79982,553.804487 C271.79982,551.372903 273.771644,549.397517 276.206388,549.397517"
                          id="Fill-289" fill="#FFFFFF"></path>
                    <path d="M4.40524395,627.883676 C6.83949762,627.883676 8.8127927,629.855628 8.8127927,632.290646 C8.8127927,634.725173 6.83949762,636.698107 4.40524395,636.698107 C1.97295181,636.698107 0.000147114444,634.725173 0.000147114444,632.290646 C0.000147114444,629.855628 1.97295181,627.883676 4.40524395,627.883676"
                          id="Fill-291" fill="#FFFFFF"></path>
                    <path d="M615.9543,745.611687 C618.389044,745.611687 620.360868,747.586583 620.360868,750.0216 C620.360868,752.452203 618.389044,754.429061 615.9543,754.429061 C613.519556,754.429061 611.549693,752.452203 611.549693,750.0216 C611.549693,747.586583 613.519556,745.611687 615.9543,745.611687"
                          id="Fill-293" fill="#FFFFFF"></path>
                    <g id="Group-297" transform="translate(1494.682752, 78.475857)">
                        <mask id="mask-2" fill="white">
                            <use></use>
                        </mask>
                        <g id="Clip-296"></g>
                        <path d="M4.62581754,0.0105465116 C7.0576193,0.0105465116 9.03238552,1.98397052 9.03238552,4.42045998 C9.03238552,6.85302515 7.0576193,8.82743023 4.62581754,8.82743023 C2.19107349,8.82743023 0.216307271,6.85302515 0.216307271,4.42045998 C0.216307271,1.98397052 2.19107349,0.0105465116 4.62581754,0.0105465116"
                              id="Fill-295" fill="#FFFFFF" mask="url(#mask-2)"></path>
                    </g>
                    <path d="M1091.60904,0.000490535425 C1094.03986,0.000490535425 1096.01364,1.97440508 1096.01364,4.40942293 C1096.01364,6.84247864 1094.03986,8.81639319 1091.60904,8.81639319 C1089.17429,8.81639319 1087.19953,6.84247864 1087.19953,4.40942293 C1087.19953,1.97440508 1089.17429,0.000490535425 1091.60904,0.000490535425"
                          id="Fill-298" fill="#FFFFFF"></path>
                </g>
            </g>
        </g>
    </g>
</svg>
