<svg xmlns="http://www.w3.org/2000/svg" xmlns:xlink="http://www.w3.org/1999/xlink" version="1.1" x="0px" y="0px" viewBox="0 0 100 125" enable-background="new 0 0 100 100" xml:space="preserve"><g><path d="M26.547,64.063c-0.187,0-0.374-0.071-0.518-0.212c-2.761-2.731-4.221-6.021-4.221-9.516c0-2.814,0.979-5.564,2.833-7.953   c0.25-0.321,0.711-0.381,1.034-0.131c0.321,0.25,0.38,0.713,0.13,1.034c-1.651,2.128-2.523,4.565-2.523,7.049   c0,3.092,1.309,6.02,3.783,8.467c0.289,0.286,0.292,0.753,0.006,1.042C26.928,63.99,26.737,64.063,26.547,64.063z"/></g><g><path d="M28.144,62.235c-0.188,0-0.375-0.071-0.519-0.213c-2.18-2.156-3.332-4.758-3.332-7.522c0-2.227,0.774-4.402,2.239-6.29   c0.249-0.321,0.712-0.381,1.034-0.13c0.321,0.25,0.38,0.712,0.131,1.034c-1.263,1.627-1.931,3.49-1.931,5.387   c0,2.362,1.001,4.601,2.895,6.475c0.29,0.286,0.292,0.753,0.007,1.042C28.523,62.162,28.333,62.235,28.144,62.235z"/></g><g><path d="M29.549,59.614c-0.188,0-0.375-0.071-0.519-0.213c-1.329-1.315-2.061-2.971-2.061-4.665c0-1.385,0.479-2.736,1.387-3.905   c0.25-0.321,0.713-0.38,1.034-0.131c0.321,0.25,0.38,0.712,0.131,1.034c-0.705,0.909-1.078,1.947-1.078,3.002   c0,1.315,0.562,2.566,1.624,3.616c0.288,0.287,0.291,0.753,0.005,1.042C29.928,59.542,29.738,59.614,29.549,59.614z"/></g><g><path d="M64.743,57.484c1.783-3.587,5.967-10.445,6.667-15.297c0.902-6.253-1.999-17.147-11.604-19.727   c-9.604-2.578-18.19,1.069-21.595,3.997c-0.813,0.699-1.447,1.597-1.956,2.564L64.743,57.484z"/><path d="M33.92,40.824c-1.134,1.348-3.885,4.769-4.089,6.455c-0.257,2.127,3.242,2.192,3.242,2.192l-0.405,4.19l2.321,1.031   l-1.934,0.387c0,0,0.772,2.192,0.257,3.481s-0.516,6.188,3.353,5.028c3.867-1.16,6.188,14.827,6.188,14.827L61.21,68.09   L33.92,40.824z"/></g><path d="M50.25,9.33c-22.472,0-40.753,18.282-40.753,40.753S27.778,90.835,50.25,90.835s40.753-18.282,40.753-40.753  S72.722,9.33,50.25,9.33z M85.003,50.083c0,8.496-3.068,16.285-8.149,22.329L27.898,23.499c6.048-5.093,13.846-8.169,22.352-8.169  C69.413,15.33,85.003,30.92,85.003,50.083z M15.497,50.083c0-8.501,3.073-16.295,8.16-22.341l48.956,48.914  c-6.049,5.099-13.852,8.18-22.363,8.18C31.087,84.835,15.497,69.245,15.497,50.083z"/><text x="0" y="115" fill="#000000" font-size="5px" font-weight="bold" font-family="'Helvetica Neue', Helvetica, Arial-Unicode, Arial, Sans-serif">Created by IconTrack</text><text x="0" y="120" fill="#000000" font-size="5px" font-weight="bold" font-family="'Helvetica Neue', Helvetica, Arial-Unicode, Arial, Sans-serif">from the Noun Project</text></svg>